<svg width="197" height="41" viewBox="0 0 197 41" fill="none" xmlns="http://www.w3.org/2000/svg">
<path d="M0.351562 1.78125C2.44531 2.03125 4.25781 2.21875 5.78906 2.34375C7.32031 2.4375 8.58594 2.51562 9.58594 2.57812C10.7422 2.64063 11.7109 2.65625 12.4922 2.625C13.3047 2.59375 14.4141 2.51562 15.8203 2.39062C17.0078 2.29688 18.5703 2.17188 20.5078 2.01562C22.4453 1.82812 24.8672 1.57812 27.7734 1.26562C27.8047 1.98438 27.8203 2.6875 27.8203 3.375C27.8516 4.03125 27.8828 4.60938 27.9141 5.10938C27.9453 5.70312 27.9609 6.25 27.9609 6.75C27.9609 7.28125 27.9297 7.95312 27.8672 8.76562C27.8047 9.45312 27.6953 10.3281 27.5391 11.3906C27.4141 12.4219 27.2109 13.6562 26.9297 15.0938C26.4922 13.4062 26.0703 12.0469 25.6641 11.0156C25.2578 9.95312 24.8828 9.10938 24.5391 8.48438C24.1641 7.76562 23.7891 7.21875 23.4141 6.84375C23.0078 6.5625 22.5234 6.32812 21.9609 6.14062C21.4609 5.98437 20.8203 5.85938 20.0391 5.76562C19.2891 5.67188 18.3984 5.6875 17.3672 5.8125C17.2109 9.9375 17.1016 13.2812 17.0391 15.8438C16.9766 18.4062 16.9297 20.4062 16.8984 21.8438C16.8672 23.5625 16.8516 24.7969 16.8516 25.5469C16.8828 26.6094 17.0547 27.6562 17.3672 28.6875C17.6172 29.5625 18.0234 30.4688 18.5859 31.4062C19.1484 32.3438 19.9609 33.1719 21.0234 33.8906H15.3047C14.7734 33.8906 14.1172 33.9219 13.3359 33.9844C12.6797 34.0469 11.8359 34.1094 10.8047 34.1719C9.80469 34.2344 8.63281 34.3438 7.28906 34.5C7.75781 33.6875 8.13281 32.9531 8.41406 32.2969C8.69531 31.6406 8.91406 31.0781 9.07031 30.6094C9.25781 30.0469 9.39844 29.5469 9.49219 29.1094C9.52344 28.4844 9.60156 27.2188 9.72656 25.3125C9.75781 24.5312 9.78906 23.5625 9.82031 22.4062C9.88281 21.25 9.94531 19.875 10.0078 18.2812C10.1016 16.6875 10.1797 14.8594 10.2422 12.7969C10.3359 10.7031 10.4297 8.34375 10.5234 5.71875C9.96094 5.5625 9.42969 5.57812 8.92969 5.76562C8.42969 5.92188 7.99219 6.125 7.61719 6.375C7.17969 6.6875 6.75781 7.0625 6.35156 7.5C5.94531 8.03125 5.49219 8.71875 4.99219 9.5625C4.55469 10.2812 4.05469 11.2344 3.49219 12.4219C2.92969 13.5781 2.28906 15.0156 1.57031 16.7344C1.41406 14.9219 1.30469 13.4375 1.24219 12.2812C1.17969 11.0938 1.13281 10.1719 1.10156 9.51562C1.07031 8.73438 1.05469 8.15625 1.05469 7.78125C1.05469 7.4375 1.02344 6.98438 0.960938 6.42188C0.898438 5.95312 0.820312 5.34375 0.726562 4.59375C0.632812 3.8125 0.507812 2.875 0.351562 1.78125ZM30.7734 17.0156C30.9297 16.8281 31.0234 16.4844 31.0547 15.9844C31.1172 15.4531 31.2422 14.8594 31.4297 14.2031C31.6484 13.5469 32.0078 12.8594 32.5078 12.1406C33.0078 11.4219 33.8203 10.75 34.9453 10.125C36.0391 9.5 37.1016 9.125 38.1328 9C39.1641 8.875 40.1484 8.92188 41.0859 9.14062C42.0234 9.35938 42.8984 9.70312 43.7109 10.1719C44.5547 10.6406 45.3203 11.1562 46.0078 11.7188C46.4766 12.0938 46.8516 12.6406 47.1328 13.3594C47.4141 14.0469 47.6328 14.8281 47.7891 15.7031C47.9453 16.5781 48.0547 17.5 48.1172 18.4688C48.2109 19.4062 48.2734 20.3281 48.3047 21.2344C48.3359 22.1094 48.3516 22.9219 48.3516 23.6719C48.3828 24.3906 48.4453 24.9844 48.5391 25.4531C48.6641 26.1406 48.8828 26.7344 49.1953 27.2344C49.5078 27.7031 49.8516 28.1094 50.2266 28.4531C50.6016 28.7656 50.9766 29.0156 51.3516 29.2031C51.7266 29.3906 52.0547 29.5312 52.3359 29.625C52.5234 29.7188 52.6953 29.7812 52.8516 29.8125C53.1641 29.9375 53.3828 29.9375 53.5078 29.8125C53.3203 30.25 53.1484 30.625 52.9922 30.9375C52.8359 31.25 52.7109 31.5156 52.6172 31.7344C52.4922 31.9844 52.3828 32.1875 52.2891 32.3438C52.1953 32.5312 52.0859 32.7031 51.9609 32.8594C51.8672 33.0156 51.7422 33.1875 51.5859 33.375C51.4297 33.5625 51.2734 33.7656 51.1172 33.9844C50.7109 33.8281 50.3203 33.6406 49.9453 33.4219C49.6016 33.2031 49.2891 33 49.0078 32.8125C48.6641 32.5938 48.3516 32.375 48.0703 32.1562C47.7891 31.9375 47.5234 31.6875 47.2734 31.4062C47.0547 31.1562 46.8203 30.8906 46.5703 30.6094C46.3516 30.3281 46.1641 30.0156 46.0078 29.6719C45.8203 30.0781 45.3672 30.6562 44.6484 31.4062C43.9609 32.1562 43.0547 32.8438 41.9297 33.4688C40.8047 34.0625 39.4922 34.4844 37.9922 34.7344C36.5234 34.9844 34.8984 34.8125 33.1172 34.2188C32.3359 33.9688 31.6016 33.6094 30.9141 33.1406C30.2266 32.6406 29.6328 32.0469 29.1328 31.3594C28.6641 30.6719 28.3203 29.8906 28.1016 29.0156C27.9141 28.1094 27.9297 27.1094 28.1484 26.0156C28.3672 24.9219 28.7578 24 29.3203 23.25C29.8828 22.5 30.5547 21.8906 31.3359 21.4219C32.1172 20.9531 32.9922 20.5938 33.9609 20.3438C34.9297 20.0938 35.9297 19.9219 36.9609 19.8281C37.7734 19.7969 38.5859 19.8438 39.3984 19.9688C40.0859 20.0938 40.8047 20.3281 41.5547 20.6719C42.3047 20.9844 42.9453 21.4688 43.4766 22.125C43.4453 20.4688 43.3828 19.1562 43.2891 18.1875C43.2266 17.1875 43.1641 16.4219 43.1016 15.8906C42.9766 15.2656 42.8672 14.8281 42.7734 14.5781C42.6172 14.3594 42.4453 14.1094 42.2578 13.8281C42.1016 13.5469 41.8984 13.2969 41.6484 13.0781C41.3984 12.8281 41.0859 12.625 40.7109 12.4688C40.3359 12.3125 39.8984 12.25 39.3984 12.2812C38.8672 12.3125 38.4453 12.4531 38.1328 12.7031C37.8203 12.9531 37.5703 13.25 37.3828 13.5938C37.2266 13.9062 37.1328 14.25 37.1016 14.625C37.0703 15 37.0859 15.3281 37.1484 15.6094C37.2109 15.7969 37.3047 16 37.4297 16.2188C37.5547 16.4062 37.7266 16.6094 37.9453 16.8281C38.1641 17.0469 38.4609 17.2344 38.8359 17.3906C38.1172 17.4844 37.4766 17.5625 36.9141 17.625C36.3516 17.6562 35.8672 17.7031 35.4609 17.7656C34.9922 17.8281 34.5859 17.875 34.2422 17.9062C33.8984 17.9375 33.4922 18 33.0234 18.0938C32.6172 18.1562 32.1172 18.2344 31.5234 18.3281C30.9297 18.4219 30.2422 18.5469 29.4609 18.7031C29.6484 18.4844 29.8203 18.2812 29.9766 18.0938C30.1328 17.875 30.2734 17.6875 30.3984 17.5312C30.5234 17.3438 30.6484 17.1719 30.7734 17.0156ZM37.8047 22.5938C37.2422 22.625 36.6797 22.7656 36.1172 23.0156C35.5547 23.2344 35.0547 23.5625 34.6172 24C34.1797 24.4062 33.8047 24.8906 33.4922 25.4531C33.2109 25.9844 33.0703 26.5781 33.0703 27.2344C33.0703 27.8906 33.2266 28.4688 33.5391 28.9688C33.8828 29.4375 34.3203 29.8281 34.8516 30.1406C35.4141 30.4531 36.0078 30.6406 36.6328 30.7031C37.2891 30.7656 37.9297 30.7031 38.5547 30.5156C39.1484 30.2969 39.7109 29.9531 40.2422 29.4844C40.7734 28.9844 41.2266 28.4531 41.6016 27.8906C41.9766 27.2969 42.2422 26.7188 42.3984 26.1562C42.5547 25.5625 42.5703 25.0781 42.4453 24.7031C42.1953 23.8906 41.6328 23.3281 40.7578 23.0156C39.8828 22.6719 38.8984 22.5312 37.8047 22.5938ZM73.7109 9.23438C73.4297 9.92188 73.1797 10.5469 72.9609 11.1094C72.7734 11.6719 72.6016 12.1719 72.4453 12.6094C72.2891 13.1094 72.1484 13.5469 72.0234 13.9219C71.8984 14.3594 71.7578 14.8594 71.6016 15.4219C71.4453 15.9219 71.2422 16.5469 70.9922 17.2969C70.7734 18.0156 70.5078 18.875 70.1953 19.875C69.9453 18.375 69.4922 17.1875 68.8359 16.3125C68.1797 15.4062 67.5078 14.7031 66.8203 14.2031C66.0078 13.6406 65.1328 13.2344 64.1953 12.9844C62.5078 12.7031 61.2891 12.7344 60.5391 13.0781C59.7891 13.4219 59.2891 13.8594 59.0391 14.3906C58.9141 14.6094 58.7734 14.8906 58.6172 15.2344C58.4922 15.5469 58.3828 15.875 58.2891 16.2188C58.2266 16.5625 58.2109 16.9062 58.2422 17.25C58.2734 17.5938 58.4141 17.875 58.6641 18.0938C58.8203 18.25 59.2266 18.4688 59.8828 18.75C60.5391 19 61.3203 19.2969 62.2266 19.6406C63.1641 19.9531 64.1484 20.2969 65.1797 20.6719C66.2422 21.0469 67.2422 21.4219 68.1797 21.7969C69.1172 22.1719 69.9297 22.5469 70.6172 22.9219C71.3047 23.2969 71.7578 23.6406 71.9766 23.9531C72.1641 24.2656 72.3672 24.6875 72.5859 25.2188C72.8359 25.7188 73.0078 26.2812 73.1016 26.9062C73.2266 27.5 73.2578 28.125 73.1953 28.7812C73.1641 29.4062 72.9922 30.0312 72.6797 30.6562C72.3672 31.2812 71.8672 31.8594 71.1797 32.3906C70.5234 32.9219 69.6328 33.3594 68.5078 33.7031C67.1953 34.1094 65.9297 34.2188 64.7109 34.0312C63.4922 33.8438 62.3672 33.5625 61.3359 33.1875C60.3359 32.8125 59.4609 32.4531 58.7109 32.1094C57.9609 31.7344 57.4297 31.5781 57.1172 31.6406C56.7734 31.7031 56.3828 31.875 55.9453 32.1562C55.5078 32.4375 55.0859 32.7344 54.6797 33.0469C54.3047 33.3281 53.9766 33.5938 53.6953 33.8438C53.4141 34.0625 53.2734 34.1406 53.2734 34.0781C53.2734 34.0156 53.3203 33.8281 53.4141 33.5156C53.5391 33.2031 53.6641 32.8281 53.7891 32.3906C53.9453 31.9219 54.0859 31.4219 54.2109 30.8906C54.3672 30.3281 54.4766 29.7969 54.5391 29.2969C54.6016 28.8906 54.6797 28.3906 54.7734 27.7969C54.8359 27.2656 54.9141 26.625 55.0078 25.875C55.1328 25.0938 55.2734 24.1562 55.4297 23.0625C55.5859 23.875 55.8047 24.5781 56.0859 25.1719C56.3984 25.7656 56.6953 26.2812 56.9766 26.7188C57.3203 27.2188 57.6484 27.6406 57.9609 27.9844C58.4297 28.4219 58.9766 28.8281 59.6016 29.2031C60.2578 29.5781 60.9141 29.9062 61.5703 30.1875C62.2266 30.4375 62.8516 30.5938 63.4453 30.6562C64.0391 30.7188 64.5391 30.6562 64.9453 30.4688C65.3516 30.2812 65.6953 29.9375 65.9766 29.4375C66.2891 28.9375 66.5078 28.3906 66.6328 27.7969C66.7578 27.2031 66.8047 26.6406 66.7734 26.1094C66.7422 25.5469 66.6016 25.0938 66.3516 24.75C66.1641 24.5312 65.7266 24.25 65.0391 23.9062C64.3828 23.5625 63.5859 23.1875 62.6484 22.7812C61.7422 22.375 60.7734 21.9531 59.7422 21.5156C58.7422 21.0781 57.7891 20.6406 56.8828 20.2031C56.0078 19.7344 55.2734 19.2969 54.6797 18.8906C54.1172 18.4531 53.8047 18.0625 53.7422 17.7188C53.6797 17.2188 53.6328 16.6719 53.6016 16.0781C53.5703 15.4531 53.6016 14.8438 53.6953 14.25C53.8203 13.625 54.0391 13.0312 54.3516 12.4688C54.6953 11.9062 55.1953 11.4375 55.8516 11.0625C56.2891 10.8125 56.8672 10.625 57.5859 10.5C58.3047 10.375 59.1016 10.3125 59.9766 10.3125C60.8516 10.2812 61.7578 10.3125 62.6953 10.4062C63.6328 10.4688 64.5234 10.5625 65.3672 10.6875C66.2422 10.7812 67.0234 10.9062 67.7109 11.0625C68.4297 11.2188 68.9766 11.3594 69.3516 11.4844C69.7891 11.6406 70.2578 11.6562 70.7578 11.5312C71.1953 11.4375 71.6641 11.2344 72.1641 10.9219C72.6641 10.6094 73.1797 10.0469 73.7109 9.23438ZM74.9297 2.20312C75.2734 2.35938 75.6797 2.46875 76.1484 2.53125C76.6484 2.59375 77.1172 2.625 77.5547 2.625C78.0859 2.625 78.6328 2.60937 79.1953 2.57812C79.7578 2.54688 80.4453 2.48438 81.2578 2.39062C81.9141 2.32812 82.7266 2.25 83.6953 2.15625C84.6641 2.0625 85.7422 1.9375 86.9297 1.78125C86.4922 2 86.1172 2.23437 85.8047 2.48438C85.4922 2.73438 85.2266 2.98437 85.0078 3.23438C84.7578 3.51562 84.5547 3.79688 84.3984 4.07812C84.1797 4.45312 83.8828 5.10938 83.5078 6.04688C83.1641 6.95312 82.8047 7.96875 82.4297 9.09375C82.0859 10.2188 81.7734 11.3594 81.4922 12.5156C81.2422 13.6719 81.1016 14.6562 81.0703 15.4688C81.0391 16.1562 81.0078 16.9375 80.9766 17.8125C80.9453 18.5625 80.9141 19.4844 80.8828 20.5781C80.8516 21.6719 80.8203 22.9219 80.7891 24.3281C83.0391 22.7031 84.7734 21.4062 85.9922 20.4375C87.2109 19.4375 88.1016 18.6719 88.6641 18.1406C89.3203 17.5469 89.7109 17.125 89.8359 16.875C89.8047 16.6875 89.7266 16.4844 89.6016 16.2656C89.4453 16.0781 89.2266 15.8594 88.9453 15.6094C88.6641 15.3594 88.2422 15.0781 87.6797 14.7656C88.4922 14.8594 89.1953 14.9219 89.7891 14.9531C90.4141 14.9844 90.9453 15.0156 91.3828 15.0469C91.8828 15.0781 92.3203 15.0781 92.6953 15.0469C93.1016 15.0469 93.6016 15.0312 94.1953 15C95.2266 14.9688 96.8203 14.9219 98.9766 14.8594C96.8828 15.9531 95.2266 16.8906 94.0078 17.6719C93.3203 18.1094 92.7109 18.5156 92.1797 18.8906C91.6484 19.2969 91.1016 19.7188 90.5391 20.1562C90.0391 20.5312 89.4609 20.9688 88.8047 21.4688C88.1797 21.9688 87.5547 22.5 86.9297 23.0625C88.0234 24.8438 88.9766 26.3125 89.7891 27.4688C90.6328 28.625 91.3359 29.5625 91.8984 30.2812C92.5547 31.125 93.1328 31.7969 93.6328 32.2969C94.1328 32.7656 94.7891 33.2969 95.6016 33.8906C96.2891 34.4219 97.1797 35.0469 98.2734 35.7656C99.3984 36.4531 100.758 37.25 102.352 38.1562C101.539 38 100.758 37.8906 100.008 37.8281C99.2578 37.7969 98.6172 37.7969 98.0859 37.8281C97.4297 37.8594 96.8359 37.9219 96.3047 38.0156C95.7422 38.1406 95.1172 38.2969 94.4297 38.4844C93.8359 38.6406 93.1328 38.8438 92.3203 39.0938C91.5391 39.375 90.6797 39.7344 89.7422 40.1719C90.3359 39.7344 90.7734 39.3125 91.0547 38.9062C91.3672 38.5312 91.5859 38.2188 91.7109 37.9688C91.8359 37.6562 91.8828 37.3906 91.8516 37.1719C91.6953 36.8594 91.3359 36.2188 90.7734 35.25C90.2422 34.4375 89.4609 33.25 88.4297 31.6875C87.3984 30.125 85.9297 28 84.0234 25.3125C83.9297 25.3438 83.7734 25.4375 83.5547 25.5938C83.3672 25.75 83.0859 25.9688 82.7109 26.25C82.3359 26.5 81.8359 26.875 81.2109 27.375L82.4766 35.5781C82.1953 35.7031 81.8828 35.8125 81.5391 35.9062C81.2266 36 80.9297 36.0781 80.6484 36.1406C80.3047 36.2344 79.9609 36.2969 79.6172 36.3281C79.2734 36.3594 78.8672 36.4219 78.3984 36.5156C77.9922 36.5781 77.5078 36.6562 76.9453 36.75C76.3828 36.875 75.7422 37.0156 75.0234 37.1719C75.4297 36.8906 75.7578 36.5625 76.0078 36.1875C76.2578 35.8438 76.4609 35.5156 76.6172 35.2031C76.7734 34.8594 76.9141 34.5 77.0391 34.125C77.1016 33.8125 77.1641 33 77.2266 31.6875C77.3203 30.375 77.3984 28.8125 77.4609 27C77.5234 25.1562 77.5703 23.1875 77.6016 21.0938C77.6641 19 77.6953 17.0312 77.6953 15.1875C77.6953 13.3125 77.6797 11.6875 77.6484 10.3125C77.6172 8.90625 77.5547 8 77.4609 7.59375C77.3047 7.09375 77.1172 6.5625 76.8984 6C76.7109 5.5 76.4453 4.9375 76.1016 4.3125C75.7891 3.65625 75.3984 2.95312 74.9297 2.20312ZM97.5234 3.65625C99.3984 3.8125 101.039 3.90625 102.445 3.9375C103.883 3.96875 105.102 3.98438 106.102 3.98438C107.258 3.98438 108.258 3.95313 109.102 3.89062C109.977 3.79688 111.117 3.67188 112.523 3.51562C113.711 3.35937 115.242 3.15625 117.117 2.90625C118.992 2.625 121.273 2.26563 123.961 1.82812C123.617 2.35938 123.32 2.92188 123.07 3.51562C122.852 4.07812 122.664 4.59375 122.508 5.0625C122.352 5.625 122.211 6.17188 122.086 6.70312C121.992 7.29688 121.883 8.03125 121.758 8.90625C121.633 9.65625 121.477 10.6094 121.289 11.7656C121.133 12.8906 120.93 14.2344 120.68 15.7969C119.742 13.3594 118.789 11.4844 117.82 10.1719C116.883 8.85938 116.008 7.89062 115.195 7.26562C114.258 6.54688 113.367 6.14062 112.523 6.04688C111.305 6.04688 110.305 6.28125 109.523 6.75C108.742 7.21875 108.102 7.82812 107.602 8.57812C107.133 9.29688 106.773 10.0938 106.523 10.9688C106.273 11.8125 106.102 12.6406 106.008 13.4531C105.914 14.2344 105.852 14.9375 105.82 15.5625C105.789 16.1562 105.758 16.5625 105.727 16.7812C106.82 16.7188 107.742 16.6406 108.492 16.5469C109.242 16.4531 109.836 16.3594 110.273 16.2656C110.805 16.1406 111.227 16.0156 111.539 15.8906C112.008 15.6406 112.477 15.3438 112.945 15C113.352 14.6875 113.773 14.3125 114.211 13.875C114.68 13.4375 115.086 12.9062 115.43 12.2812C115.242 13.4062 115.07 14.3438 114.914 15.0938C114.789 15.8438 114.68 16.4375 114.586 16.875C114.461 17.4062 114.383 17.8125 114.352 18.0938C114.289 18.375 114.211 18.7656 114.117 19.2656C114.023 19.7031 113.914 20.2656 113.789 20.9531C113.664 21.6406 113.523 22.5 113.367 23.5312C112.992 22.875 112.602 22.3438 112.195 21.9375C111.789 21.5 111.414 21.1562 111.07 20.9062C110.664 20.625 110.273 20.4062 109.898 20.25C109.492 20.125 109.055 20 108.586 19.875C108.18 19.7812 107.695 19.6875 107.133 19.5938C106.602 19.4688 106.023 19.3594 105.398 19.2656C105.461 20.9531 105.555 22.4062 105.68 23.625C105.805 24.8125 105.914 25.8125 106.008 26.625C106.133 27.5625 106.258 28.3438 106.383 28.9688C106.539 29.5938 106.789 30.2656 107.133 30.9844C107.414 31.6094 107.805 32.3281 108.305 33.1406C108.836 33.9219 109.508 34.7656 110.32 35.6719C109.695 35.5156 109.039 35.4062 108.352 35.3438C107.664 35.2812 107.055 35.2344 106.523 35.2031C105.867 35.1719 105.242 35.1719 104.648 35.2031C104.023 35.2344 103.336 35.2969 102.586 35.3906C101.961 35.4531 101.242 35.5469 100.43 35.6719C99.6172 35.7969 98.7578 35.9375 97.8516 36.0938C98.3828 35.5625 98.8203 35.0312 99.1641 34.5C99.5078 33.9688 99.7578 33.5 99.9141 33.0938C100.102 32.625 100.227 32.1719 100.289 31.7344C100.32 31.3594 100.336 30.5469 100.336 29.2969C100.336 28.0156 100.32 26.5312 100.289 24.8438C100.258 23.125 100.211 21.3125 100.148 19.4062C100.086 17.5 100.023 15.7188 99.9609 14.0625C99.8984 12.375 99.8203 10.9375 99.7266 9.75C99.6641 8.5625 99.5859 7.84375 99.4922 7.59375C99.3672 7.28125 99.2266 6.92188 99.0703 6.51562C98.8203 5.85938 98.3047 4.90625 97.5234 3.65625ZM125.508 37.3125C125.82 36.8438 126.07 36.4062 126.258 36C126.445 35.5938 126.602 35.25 126.727 34.9688C126.852 34.625 126.945 34.3125 127.008 34.0312C127.039 33.8438 127.055 33.2969 127.055 32.3906C127.055 31.4844 127.023 30.3438 126.961 28.9688C126.93 27.5938 126.883 26.0469 126.82 24.3281C126.789 22.6094 126.727 20.8594 126.633 19.0781C126.57 17.2969 126.492 15.5625 126.398 13.875C126.336 12.1875 126.273 10.6719 126.211 9.32812C126.148 7.95312 126.086 6.82812 126.023 5.95312C125.961 5.07813 125.914 4.57812 125.883 4.45312C125.82 4.26562 125.711 4.07812 125.555 3.89062C125.242 3.51562 124.711 3.15625 123.961 2.8125C125.555 2.40625 126.773 2.07813 127.617 1.82812C128.117 1.70313 128.555 1.57812 128.93 1.45312C129.273 1.32813 129.617 1.20312 129.961 1.07812C130.242 0.953125 130.555 0.8125 130.898 0.65625C131.242 0.46875 131.555 0.265625 131.836 0.046875C131.68 0.953125 131.555 1.82812 131.461 2.67188C131.367 3.51562 131.289 4.29687 131.227 5.01562C131.164 5.82813 131.133 6.60938 131.133 7.35938C130.977 8.89062 130.883 10.5625 130.852 12.375C130.852 14.1562 130.867 15.9688 130.898 17.8125C130.93 19.6562 130.992 21.4531 131.086 23.2031C131.18 24.9531 131.273 26.5469 131.367 27.9844C131.492 29.3906 131.602 30.5938 131.695 31.5938C131.82 32.5625 131.914 33.1875 131.977 33.4688C132.102 33.9375 132.227 34.3906 132.352 34.8281C132.477 35.2031 132.617 35.5938 132.773 36C132.93 36.4375 133.117 36.7812 133.336 37.0312H128.789C128.383 37.0312 127.992 37.0469 127.617 37.0781C127.273 37.1094 126.914 37.1406 126.539 37.1719C126.164 37.2031 125.82 37.25 125.508 37.3125ZM147.586 15C148.398 15 149.242 15.1562 150.117 15.4688C150.992 15.75 151.836 16.125 152.648 16.5938C153.461 17.0312 154.195 17.5156 154.852 18.0469C155.539 18.5469 156.102 19.0312 156.539 19.5C157.32 20.3438 157.852 21.4844 158.133 22.9219C158.445 24.3281 158.508 25.7812 158.32 27.2812C158.133 28.75 157.695 30.1406 157.008 31.4531C156.32 32.7656 155.367 33.7344 154.148 34.3594C153.273 34.7969 152.414 35.1406 151.57 35.3906C150.727 35.6406 149.914 35.8281 149.133 35.9531C148.352 36.0781 147.617 36.1406 146.93 36.1406C146.242 36.1406 145.648 36.125 145.148 36.0938C144.211 36.0312 143.227 35.7031 142.195 35.1094C141.195 34.5156 140.242 33.7812 139.336 32.9062C138.461 32.0312 137.711 31.0781 137.086 30.0469C136.461 28.9844 136.086 27.9844 135.961 27.0469C135.773 25.7656 135.742 24.4219 135.867 23.0156C135.992 21.6094 136.445 20.3125 137.227 19.125C138.039 17.9375 139.258 16.9531 140.883 16.1719C142.539 15.3906 144.773 15 147.586 15ZM146.039 33.1875C146.383 33.25 146.852 33.1719 147.445 32.9531C148.039 32.7031 148.617 32.3125 149.18 31.7812C149.773 31.25 150.289 30.5781 150.727 29.7656C151.195 28.9219 151.477 27.9062 151.57 26.7188C151.664 25.5625 151.664 24.5 151.57 23.5312C151.508 22.5625 151.367 21.7188 151.148 21C150.93 20.25 150.68 19.6406 150.398 19.1719C150.117 18.7031 149.82 18.375 149.508 18.1875C148.977 17.9062 148.336 17.6875 147.586 17.5312C146.836 17.3438 146.195 17.375 145.664 17.625C145.414 17.75 145.102 18.0156 144.727 18.4219C144.352 18.8281 143.977 19.3438 143.602 19.9688C143.227 20.5625 142.883 21.25 142.57 22.0312C142.289 22.8125 142.086 23.625 141.961 24.4688C141.836 25.3125 141.805 26.2188 141.867 27.1875C141.961 28.1562 142.164 29.0781 142.477 29.9531C142.789 30.7969 143.227 31.5312 143.789 32.1562C144.383 32.75 145.133 33.0938 146.039 33.1875ZM157.711 14.3906C158.648 14.4531 159.477 14.5 160.195 14.5312C160.945 14.5625 161.57 14.5938 162.07 14.625C162.633 14.6562 163.133 14.6719 163.57 14.6719C164.008 14.6719 164.508 14.6562 165.07 14.625C165.57 14.5938 166.18 14.5469 166.898 14.4844C167.648 14.3906 168.508 14.2656 169.477 14.1094C168.727 14.5781 168.117 15.0156 167.648 15.4219C167.211 15.7969 166.867 16.1406 166.617 16.4531C166.336 16.7969 166.148 17.1094 166.055 17.3906C165.992 17.6406 165.93 18.1406 165.867 18.8906C165.836 19.6094 165.805 20.4531 165.773 21.4219C165.773 22.3594 165.789 23.3594 165.82 24.4219C165.852 25.4844 165.898 26.4531 165.961 27.3281C166.023 28.1719 166.117 28.8906 166.242 29.4844C166.367 30.0469 166.523 30.3125 166.711 30.2812C166.961 30.0625 167.367 29.3281 167.93 28.0781C168.148 27.5469 168.414 26.875 168.727 26.0625C169.039 25.2188 169.398 24.2031 169.805 23.0156C170.211 21.7969 170.664 20.375 171.164 18.75C171.695 17.125 172.289 15.2344 172.945 13.0781H177.023C177.148 15.2031 177.289 17.0625 177.445 18.6562C177.602 20.25 177.758 21.6406 177.914 22.8281C178.07 23.9844 178.211 24.9688 178.336 25.7812C178.492 26.5625 178.648 27.2031 178.805 27.7031C179.148 28.8906 179.492 29.5312 179.836 29.625C180.117 29.5625 180.414 29.2031 180.727 28.5469C181.07 27.8906 181.383 27.0781 181.664 26.1094C181.977 25.1406 182.258 24.0938 182.508 22.9688C182.758 21.8125 182.977 20.7344 183.164 19.7344C183.352 18.7344 183.477 17.8594 183.539 17.1094C183.602 16.3594 183.602 15.8906 183.539 15.7031C183.445 15.5156 183.258 15.25 182.977 14.9062C182.727 14.625 182.383 14.2812 181.945 13.875C181.539 13.4688 180.977 12.9844 180.258 12.4219C181.133 12.5781 181.961 12.6875 182.742 12.75C183.555 12.7812 184.273 12.8125 184.898 12.8438C185.617 12.875 186.273 12.875 186.867 12.8438C187.492 12.8438 188.258 12.8281 189.164 12.7969C189.945 12.7656 190.914 12.75 192.07 12.75C193.258 12.75 194.648 12.7188 196.242 12.6562C194.836 13.0938 193.711 13.5156 192.867 13.9219C192.055 14.2969 191.43 14.6562 190.992 15C190.461 15.375 190.086 15.7344 189.867 16.0781C189.648 16.5469 189.305 17.5312 188.836 19.0312C188.648 19.6562 188.414 20.4375 188.133 21.375C187.852 22.2812 187.523 23.3594 187.148 24.6094C186.773 25.8594 186.352 27.3125 185.883 28.9688C185.414 30.5938 184.883 32.4531 184.289 34.5469C183.945 34.4844 183.586 34.4531 183.211 34.4531C182.867 34.4219 182.539 34.4062 182.227 34.4062H181.148C180.773 34.4375 180.367 34.4688 179.93 34.5C179.555 34.5312 179.117 34.5781 178.617 34.6406C178.117 34.7031 177.57 34.7812 176.977 34.875L174.164 23.4844L169.57 34.875L164.32 34.7344C163.664 31.2031 163.133 28.3906 162.727 26.2969C162.352 24.1719 162.039 22.5469 161.789 21.4219C161.508 20.1094 161.32 19.1875 161.227 18.6562C161.07 18.0938 160.836 17.5469 160.523 17.0156C160.273 16.5781 159.914 16.125 159.445 15.6562C158.977 15.1562 158.398 14.7344 157.711 14.3906Z" fill="url(#paint0_linear_324_309)"/>
<defs>
<linearGradient id="paint0_linear_324_309" x1="1" y1="19" x2="191" y2="19" gradientUnits="userSpaceOnUse">
<stop stop-color="#4A078D"/>
<stop offset="1" stop-color="#153CFF"/>
</linearGradient>
</defs>
</svg>
